<?xml version="1.0" encoding="UTF-8"?>
<svg xmlns="http://www.w3.org/2000/svg" width="960" height="528" viewBox="0 0 960 528" role="img" aria-labelledby="title description">
  <title id="title">Featured work by Vikas Neriyanuru</title>
  <desc id="description">Six featured software projects spanning music intelligence, MLOps, patent search, fintech, IoT, and Bitcoin systems.</desc>
  <style>
    text { font-family: -apple-system, BlinkMacSystemFont, "Segoe UI", sans-serif; }
    .name { fill: #f0f6fc; font-size: 18px; font-weight: 650; }
    .label { font-size: 12px; font-weight: 600; letter-spacing: 0.04em; text-transform: uppercase; }
    .summary { fill: #c9d1d9; font-size: 12px; }
    .stack { fill: #8b949e; font-size: 11px; }
  </style>
  <rect width="960" height="528" rx="16" fill="#0d1117" stroke="#30363d" />
  <circle cx="46" cy="45" r="7" fill="#58a6ff" />
  <text x="64" y="42" fill="#f0f6fc" font-size="23" font-weight="650">What I have been building</text>
  <text x="28" y="74" fill="#8b949e" font-size="14">Six projects across product engineering, cloud systems, and applied machine learning.</text>
  
      <g>
        <rect x="28" y="112" width="440" height="112" rx="14" fill="#161b22" stroke="#30363d" />
        <rect x="28" y="112" width="6" height="112" rx="3" fill="#8b5cf6" />
        <circle cx="59" cy="143" r="12" fill="#8b5cf6" opacity="0.92" />
        <text x="82" y="140" class="name">MoodSync</text>
        <text x="82" y="160" class="label" fill="#8b5cf6">Music intelligence</text>
        <text x="52" y="188" class="summary">Mood scoring from real preview audio after Spotify restricted audio features.</text>
        <text x="52" y="208" class="stack">FastAPI  •  React Native  •  PostgreSQL</text>
      </g>

      <g>
        <rect x="492" y="112" width="440" height="112" rx="14" fill="#161b22" stroke="#30363d" />
        <rect x="492" y="112" width="6" height="112" rx="3" fill="#3b82f6" />
        <circle cx="523" cy="143" r="12" fill="#3b82f6" opacity="0.92" />
        <text x="546" y="140" class="name">TicketForge</text>
        <text x="546" y="160" class="label" fill="#3b82f6">MLOps platform</text>
        <text x="516" y="188" class="summary">AI assisted ticket assignment from ingest to monitoring and deployment.</text>
        <text x="516" y="208" class="stack">Airflow  •  MLflow  •  GCP  •  Terraform</text>
      </g>

      <g>
        <rect x="28" y="244" width="440" height="112" rx="14" fill="#161b22" stroke="#30363d" />
        <rect x="28" y="244" width="6" height="112" rx="3" fill="#06b6d4" />
        <circle cx="59" cy="275" r="12" fill="#06b6d4" opacity="0.92" />
        <text x="82" y="272" class="name">ThinkStruct</text>
        <text x="82" y="292" class="label" fill="#06b6d4">Patent search</text>
        <text x="52" y="320" class="summary">Hybrid retrieval, reranking, fine tuning, and a plan for ten million patents.</text>
        <text x="52" y="340" class="stack">Flask  •  Embeddings  •  pgvector</text>
      </g>

      <g>
        <rect x="492" y="244" width="440" height="112" rx="14" fill="#161b22" stroke="#30363d" />
        <rect x="492" y="244" width="6" height="112" rx="3" fill="#f97316" />
        <circle cx="523" cy="275" r="12" fill="#f97316" opacity="0.92" />
        <text x="546" y="272" class="name">Impulse Coach</text>
        <text x="546" y="292" class="label" fill="#f97316">Fintech product</text>
        <text x="516" y="320" class="summary">A mobile coach that turns spending patterns into useful nudges.</text>
        <text x="516" y="340" class="stack">Expo  •  Plaid  •  Supabase</text>
      </g>

      <g>
        <rect x="28" y="376" width="440" height="112" rx="14" fill="#161b22" stroke="#30363d" />
        <rect x="28" y="376" width="6" height="112" rx="3" fill="#10b981" />
        <circle cx="59" cy="407" r="12" fill="#10b981" opacity="0.92" />
        <text x="82" y="404" class="name">IoT Sensor Dashboard</text>
        <text x="82" y="424" class="label" fill="#10b981">Cloud and devices</text>
        <text x="52" y="452" class="summary">Live shipment condition monitoring from MQTT through Cloud Run.</text>
        <text x="52" y="472" class="stack">MQTT  •  Firestore  •  Pub Sub</text>
      </g>

      <g>
        <rect x="492" y="376" width="440" height="112" rx="14" fill="#161b22" stroke="#30363d" />
        <rect x="492" y="376" width="6" height="112" rx="3" fill="#f59e0b" />
        <circle cx="523" cy="407" r="12" fill="#f59e0b" opacity="0.92" />
        <text x="546" y="404" class="name">Tribunal</text>
        <text x="546" y="424" class="label" fill="#f59e0b">Bitcoin systems</text>
        <text x="516" y="452" class="summary">A Bitcoin native marketplace with HTLC escrow and on chain reputation.</text>
        <text x="516" y="472" class="stack">Next.js  •  Bitcoin Script  •  PostgreSQL</text>
      </g>
</svg>
